# xmcd
#
# Track frame offsets: 
#        150
#        12397
#        24979
#        36627
#        47501
#        58795
#        68555
#        77185
#        89488
#        103332
#        114285
#        126645
#        136959
#        148254
#        160348
#        173283
#        187732
#        199526
#        211720
#        224042
#        235165
#        248309
#        258511
#        271041
#        283324
#
# Disc length: 3966 seconds
#
# Revision: 0
# Processed by: cddbd v1.5.2PL0 Copyright (c) Steve Scherf et al.
# Submitted via: ExactAudioCopy v1.0b3
#
DISCID=6a0f7c19
DTITLE=Various Artist - The very best of Bluegrass [CD3]
DYEAR=2010
DGENRE=Bluegrass
TTITLE0=The Rice Brothers Gang - You are my sunshine
TTITLE1=Lester Flatt and Earl Scruggs - Doin' my time
TTITLE2=Delmore Brothers - Brown's furry blues
TTITLE3=The Alley Boys of Abbeville - Abbeville breakdown
TTITLE4=Sonny Terry and Brownie McGhee - Pick a bale of cotton
TTITLE5=Bill Monroe And His Bluegrass Boys - Y'All come
TTITLE6=Jimmy Martin and the Osborne Brothers - She's just a cute thin
TTITLE6=g
TTITLE7=The Bailes Brothers - Something's got a hold on me
TTITLE8=The Stanley Brothers - This little glass of wine
TTITLE9=Reno and Smiley - Hear Jerusalem Mourn
TTITLE10=The Carter Family - Worried man blues
TTITLE11=Jim Eanes and The Shenandoah Valley Boys - Blue yodel no.1 ('t 
TTITLE11=for Taxas)
TTITLE12=Mac Wiseman - Going like a wildfire
TTITLE13=Bill Monroe And His Bluegrass Boys - Uncle Pen
TTITLE14=Roy Acuff - Great speckle bird
TTITLE15=The Blue Sky Boys - Row us over the tide
TTITLE16=The Stanley Brothers - Wake up sweetheart
TTITLE17=The Lonesome Pine Fiddlers - Pain in my heart
TTITLE18=Woody Guthrie and Cisco Houston - John Henry
TTITLE19=Frank Hunter and his Black Mountain Boys - Long time, no see
TTITLE20=Sonny Terry and Brownie McGhee - Diggin' my potatoes
TTITLE21=Lester Flatt and Earl Scruggs - Get in line brother
TTITLE22=Molly O'Day and The Cumberland Mountain Boys - The tramp on the
TTITLE22=street
TTITLE23=Bill Monroe And His Bluegrass Boys - Mule skinner's blues
TTITLE24=Marc Williams - Little old sod shanty on my claim
EXTD=
EXTT0=
EXTT1=
EXTT2=
EXTT3=
EXTT4=
EXTT5=
EXTT6=
EXTT7=
EXTT8=
EXTT9=
EXTT10=
EXTT11=
EXTT12=
EXTT13=
EXTT14=
EXTT15=
EXTT16=
EXTT17=
EXTT18=
EXTT19=
EXTT20=
EXTT21=
EXTT22=
EXTT23=
EXTT24=
PLAYORDER=
